<svg width="1400" height="760" viewBox="0 0 1400 760" fill="none" xmlns="http://www.w3.org/2000/svg">
  <defs>
    <linearGradient id="bg" x1="0" y1="0" x2="1400" y2="760" gradientUnits="userSpaceOnUse">
      <stop stop-color="#070711"/>
      <stop offset="0.48" stop-color="#101022"/>
      <stop offset="1" stop-color="#0B1727"/>
    </linearGradient>
    <linearGradient id="primary" x1="0" y1="0" x2="1" y2="1">
      <stop stop-color="#6C63FF"/>
      <stop offset="1" stop-color="#8B5CF6"/>
    </linearGradient>
    <linearGradient id="accent" x1="0" y1="0" x2="1" y2="1">
      <stop stop-color="#00D9A3"/>
      <stop offset="1" stop-color="#10B981"/>
    </linearGradient>
    <radialGradient id="glowA" cx="0" cy="0" r="1" gradientUnits="userSpaceOnUse" gradientTransform="translate(1040 170) rotate(128) scale(420 300)">
      <stop stop-color="#6C63FF" stop-opacity="0.42"/>
      <stop offset="1" stop-color="#6C63FF" stop-opacity="0"/>
    </radialGradient>
    <radialGradient id="glowB" cx="0" cy="0" r="1" gradientUnits="userSpaceOnUse" gradientTransform="translate(340 520) rotate(33) scale(460 320)">
      <stop stop-color="#00D9A3" stop-opacity="0.22"/>
      <stop offset="1" stop-color="#00D9A3" stop-opacity="0"/>
    </radialGradient>
    <filter id="shadow" x="-20%" y="-20%" width="140%" height="140%">
      <feDropShadow dx="0" dy="34" stdDeviation="34" flood-color="#000000" flood-opacity="0.38"/>
    </filter>
    <filter id="soft" x="-30%" y="-30%" width="160%" height="160%">
      <feGaussianBlur stdDeviation="22"/>
    </filter>
  </defs>

  <rect width="1400" height="760" rx="42" fill="url(#bg)"/>
  <rect width="1400" height="760" rx="42" fill="url(#glowA)"/>
  <rect width="1400" height="760" rx="42" fill="url(#glowB)"/>

  <g opacity="0.55">
    <circle cx="116" cy="138" r="3" fill="#FFFFFF"/>
    <circle cx="210" cy="206" r="2" fill="#FFFFFF"/>
    <circle cx="1220" cy="112" r="3" fill="#FFFFFF"/>
    <circle cx="1290" cy="620" r="2" fill="#FFFFFF"/>
    <path d="M92 654C230 568 303 605 438 496C585 378 632 166 812 112C936 75 1054 116 1180 59" stroke="#FFFFFF" stroke-opacity="0.06" stroke-width="2"/>
    <path d="M55 198C190 150 312 184 447 278C632 407 821 424 1002 328C1120 266 1228 249 1338 294" stroke="#FFFFFF" stroke-opacity="0.05" stroke-width="2"/>
  </g>

  <g transform="translate(88 86)">
    <rect x="0" y="0" width="120" height="120" rx="30" fill="#161625" stroke="#FFFFFF" stroke-opacity="0.14"/>
    <rect x="28" y="28" width="24" height="24" rx="6" fill="url(#primary)"/>
    <rect x="66" y="28" width="26" height="24" rx="6" fill="#00D9A3" opacity="0.92"/>
    <rect x="28" y="66" width="24" height="26" rx="6" fill="#F59E0B" opacity="0.92"/>
    <rect x="66" y="66" width="26" height="26" rx="6" fill="#F43F5E" opacity="0.92"/>
  </g>

  <g transform="translate(88 238)">
    <text fill="#F8F7FF" font-family="Sora, Inter, Arial" font-size="74" font-weight="800" letter-spacing="-2">RentFlow</text>
    <text y="54" fill="#A09EC0" font-family="Inter, Arial" font-size="28" font-weight="500">Rent, Tracked. Family, Synced.</text>
    <text y="116" fill="#E8E7F5" font-family="Inter, Arial" font-size="22" font-weight="500">A family rent command center for rooms, tenants, dues,</text>
    <text y="150" fill="#E8E7F5" font-family="Inter, Arial" font-size="22" font-weight="500">documents, reminders, receipts, QR payments, and live sync.</text>

    <g transform="translate(0 208)">
      <rect width="184" height="56" rx="18" fill="#6C63FF" fill-opacity="0.18" stroke="#6C63FF" stroke-opacity="0.42"/>
      <text x="24" y="36" fill="#BFB9FF" font-family="Inter, Arial" font-size="18" font-weight="700">Flutter Android</text>
      <rect x="206" width="158" height="56" rx="18" fill="#00D9A3" fill-opacity="0.16" stroke="#00D9A3" stroke-opacity="0.36"/>
      <text x="230" y="36" fill="#55F5C9" font-family="Inter, Arial" font-size="18" font-weight="700">Live Sync</text>
      <rect x="386" width="180" height="56" rx="18" fill="#FFB800" fill-opacity="0.15" stroke="#FFB800" stroke-opacity="0.34"/>
      <text x="410" y="36" fill="#FFD66D" font-family="Inter, Arial" font-size="18" font-weight="700">Voice + Hindi</text>
    </g>

    <g transform="translate(0 314)">
      <rect width="560" height="128" rx="30" fill="#161625" stroke="#FFFFFF" stroke-opacity="0.10"/>
      <text x="28" y="44" fill="#FFFFFF" font-family="Sora, Inter, Arial" font-size="24" font-weight="750">Core promise</text>
      <text x="28" y="82" fill="#A09EC0" font-family="Inter, Arial" font-size="18">If one family member records rent, every phone updates.</text>
      <text x="28" y="110" fill="#A09EC0" font-family="Inter, Arial" font-size="18">Partial dues, QR reminders, and receipts stay connected.</text>
    </g>
  </g>

  <g transform="translate(705 82)" filter="url(#shadow)">
    <rect x="0" y="0" width="324" height="642" rx="44" fill="#09090F" stroke="#FFFFFF" stroke-opacity="0.14" stroke-width="2"/>
    <rect x="28" y="28" width="268" height="586" rx="34" fill="#111120"/>
    <g transform="translate(48 58)">
      <text x="0" y="20" fill="#5C5A7A" font-family="Inter, Arial" font-size="13" font-weight="700" letter-spacing="2">SATURDAY, 30 MAY</text>
      <text x="0" y="70" fill="#F0EFF8" font-family="Sora, Inter, Arial" font-size="34" font-weight="800">Good evening</text>
      <g transform="translate(0 104)">
        <rect width="228" height="104" rx="22" fill="url(#primary)"/>
        <text x="20" y="34" fill="#D7D3FF" font-family="Inter, Arial" font-size="14" font-weight="700">Collected this month</text>
        <text x="20" y="72" fill="#FFFFFF" font-family="Sora, Inter, Arial" font-size="30" font-weight="800">INR 42.5k</text>
        <circle cx="188" cy="52" r="28" fill="#FFFFFF" fill-opacity="0.12"/>
        <path d="M178 54L187 63L201 42" stroke="#FFFFFF" stroke-width="5" stroke-linecap="round" stroke-linejoin="round"/>
      </g>
      <g transform="translate(0 230)">
        <rect width="106" height="92" rx="20" fill="#161625" stroke="#FFFFFF" stroke-opacity="0.08"/>
        <text x="16" y="32" fill="#A09EC0" font-family="Inter, Arial" font-size="13">Rooms</text>
        <text x="16" y="68" fill="#F0EFF8" font-family="Sora, Inter, Arial" font-size="28" font-weight="800">08</text>
        <rect x="122" width="106" height="92" rx="20" fill="#102A28" stroke="#00D9A3" stroke-opacity="0.14"/>
        <text x="138" y="32" fill="#A09EC0" font-family="Inter, Arial" font-size="13">Paid</text>
        <text x="138" y="68" fill="#00D9A3" font-family="Sora, Inter, Arial" font-size="28" font-weight="800">05</text>
      </g>
      <g transform="translate(0 350)">
        <rect width="228" height="130" rx="22" fill="#161625" stroke="#FFFFFF" stroke-opacity="0.08"/>
        <text x="18" y="34" fill="#F0EFF8" font-family="Sora, Inter, Arial" font-size="20" font-weight="750">Payment calendar</text>
        <g transform="translate(18 56)">
          <rect width="30" height="30" rx="10" fill="#00D9A3" fill-opacity="0.22"/>
          <text x="10" y="21" fill="#00D9A3" font-family="Inter, Arial" font-size="13" font-weight="800">5</text>
          <rect x="38" width="30" height="30" rx="10" fill="#6C63FF" fill-opacity="0.2"/>
          <text x="45" y="21" fill="#BFB9FF" font-family="Inter, Arial" font-size="13" font-weight="800">10</text>
          <rect x="76" width="30" height="30" rx="10" fill="#FFB800" fill-opacity="0.22"/>
          <text x="83" y="21" fill="#FFB800" font-family="Inter, Arial" font-size="13" font-weight="800">15</text>
          <rect x="114" width="30" height="30" rx="10" fill="#FF4D6D" fill-opacity="0.22"/>
          <text x="121" y="21" fill="#FF4D6D" font-family="Inter, Arial" font-size="13" font-weight="800">21</text>
        </g>
        <rect x="18" y="102" width="192" height="8" rx="4" fill="#FFFFFF" fill-opacity="0.09"/>
        <rect x="18" y="102" width="138" height="8" rx="4" fill="#00D9A3"/>
      </g>
      <g transform="translate(0 506)">
        <rect width="228" height="48" rx="18" fill="#1C1C30"/>
        <circle cx="34" cy="24" r="14" fill="#6C63FF"/>
        <rect x="64" y="16" width="34" height="6" rx="3" fill="#6C63FF"/>
        <rect x="114" y="16" width="34" height="6" rx="3" fill="#5C5A7A"/>
        <rect x="164" y="16" width="34" height="6" rx="3" fill="#5C5A7A"/>
        <rect x="64" y="28" width="134" height="5" rx="2.5" fill="#FFFFFF" fill-opacity="0.08"/>
      </g>
    </g>
  </g>

  <g transform="translate(990 160)" filter="url(#shadow)">
    <rect width="292" height="430" rx="36" fill="#FFFFFF"/>
    <rect x="24" y="30" width="244" height="106" rx="26" fill="#EEF0FF" stroke="#D7D3FF"/>
    <rect x="92" y="50" width="72" height="72" rx="28" fill="url(#primary)"/>
    <path d="M128 76V94M118 86C118 101 138 101 138 86M128 104V112" stroke="#FFFFFF" stroke-width="5" stroke-linecap="round"/>
    <text x="42" y="178" fill="#09090F" font-family="Sora, Inter, Arial" font-size="27" font-weight="800">Voice assistant</text>
    <text x="42" y="214" fill="#5C5A7A" font-family="Inter, Arial" font-size="17" font-weight="600">"Room 103 ka 2500 rent add karo"</text>
    <rect x="42" y="252" width="208" height="122" rx="24" fill="#F8F9FC" stroke="#E1E4F0"/>
    <text x="62" y="292" fill="#09090F" font-family="Sora, Inter, Arial" font-size="24" font-weight="800">Record rent?</text>
    <text x="62" y="326" fill="#5C5A7A" font-family="Inter, Arial" font-size="16">Room 103 | Cash</text>
    <text x="62" y="356" fill="#00A67A" font-family="Sora, Inter, Arial" font-size="22" font-weight="800">INR 2,500</text>
    <rect x="42" y="394" width="96" height="48" rx="18" fill="#FFFFFF" stroke="#DCE0EB"/>
    <text x="68" y="424" fill="#09090F" font-family="Inter, Arial" font-size="15" font-weight="800">Cancel</text>
    <rect x="154" y="394" width="96" height="48" rx="18" fill="url(#primary)"/>
    <text x="178" y="424" fill="#FFFFFF" font-family="Inter, Arial" font-size="15" font-weight="800">Save</text>
  </g>

  <g transform="translate(1094 570)">
    <rect width="230" height="92" rx="24" fill="#161625" stroke="#FFFFFF" stroke-opacity="0.10"/>
    <text x="22" y="34" fill="#FFFFFF" font-family="Sora, Inter, Arial" font-size="20" font-weight="800">WhatsApp ready</text>
    <text x="22" y="62" fill="#A09EC0" font-family="Inter, Arial" font-size="15">Receipt + QR + reminder</text>
  </g>
</svg>
