<svg width="1400" height="660" viewBox="0 0 1400 660" fill="none" xmlns="http://www.w3.org/2000/svg">
  <defs>
    <linearGradient id="bg" x1="0" y1="0" x2="1400" y2="660" gradientUnits="userSpaceOnUse">
      <stop stop-color="#101022"/>
      <stop offset="1" stop-color="#09131F"/>
    </linearGradient>
    <linearGradient id="mic" x1="0" y1="0" x2="1" y2="1">
      <stop stop-color="#6C63FF"/>
      <stop offset="1" stop-color="#00D9A3"/>
    </linearGradient>
    <filter id="shadow" x="-20%" y="-20%" width="140%" height="140%">
      <feDropShadow dx="0" dy="24" stdDeviation="26" flood-color="#000000" flood-opacity="0.36"/>
    </filter>
  </defs>

  <rect width="1400" height="660" rx="40" fill="url(#bg)"/>
  <circle cx="700" cy="330" r="240" fill="#6C63FF" opacity="0.07"/>
  <text x="70" y="78" fill="#F0EFF8" font-family="Sora, Inter, Arial" font-size="42" font-weight="850">Voice command map</text>
  <text x="70" y="118" fill="#A09EC0" font-family="Inter, Arial" font-size="20">Hindi + English commands are routed into safe previews before action.</text>

  <g filter="url(#shadow)">
    <g transform="translate(545 190)">
      <circle cx="155" cy="155" r="126" fill="url(#mic)"/>
      <circle cx="155" cy="155" r="150" stroke="#FFFFFF" stroke-opacity="0.08" stroke-width="18"/>
      <path d="M155 94V166M127 145C127 184 183 184 183 145M155 205V234M124 234H186" stroke="#FFFFFF" stroke-width="18" stroke-linecap="round"/>
      <text x="42" y="334" fill="#FFFFFF" font-family="Sora, Inter, Arial" font-size="27" font-weight="850">Tap mic and speak</text>
      <text x="72" y="366" fill="#A09EC0" font-family="Inter, Arial" font-size="16">Preview first, save after confirm.</text>
    </g>

    <g transform="translate(80 180)">
      <rect width="360" height="82" rx="24" fill="#161625" stroke="#FFFFFF" stroke-opacity="0.10"/>
      <text x="26" y="34" fill="#00D9A3" font-family="Inter, Arial" font-size="16" font-weight="850">Rent command</text>
      <text x="26" y="60" fill="#F0EFF8" font-family="Inter, Arial" font-size="17">"Room 103 ka 2500 rent add karo"</text>
      <rect y="112" width="360" height="82" rx="24" fill="#161625" stroke="#FFFFFF" stroke-opacity="0.10"/>
      <text x="26" y="146" fill="#FFB800" font-family="Inter, Arial" font-size="16" font-weight="850">Due query</text>
      <text x="26" y="172" fill="#F0EFF8" font-family="Inter, Arial" font-size="17">"Kaunse room ka rent pending hai?"</text>
      <rect y="224" width="360" height="82" rx="24" fill="#161625" stroke="#FFFFFF" stroke-opacity="0.10"/>
      <text x="26" y="258" fill="#6C63FF" font-family="Inter, Arial" font-size="16" font-weight="850">Reminder</text>
      <text x="26" y="284" fill="#F0EFF8" font-family="Inter, Arial" font-size="17">"Rohit ko reminder bhejo"</text>
    </g>

    <g transform="translate(960 180)">
      <rect width="360" height="82" rx="24" fill="#161625" stroke="#FFFFFF" stroke-opacity="0.10"/>
      <text x="26" y="34" fill="#4D9EFF" font-family="Inter, Arial" font-size="16" font-weight="850">Call tenant</text>
      <text x="26" y="60" fill="#F0EFF8" font-family="Inter, Arial" font-size="17">"Ramesh ko call lagao"</text>
      <rect y="112" width="360" height="82" rx="24" fill="#161625" stroke="#FFFFFF" stroke-opacity="0.10"/>
      <text x="26" y="146" fill="#FF4D6D" font-family="Inter, Arial" font-size="16" font-weight="850">Document view</text>
      <text x="26" y="172" fill="#F0EFF8" font-family="Inter, Arial" font-size="17">"Ramesh ka document dikhao"</text>
      <rect y="224" width="360" height="82" rx="24" fill="#161625" stroke="#FFFFFF" stroke-opacity="0.10"/>
      <text x="26" y="258" fill="#00D9A3" font-family="Inter, Arial" font-size="16" font-weight="850">Document upload</text>
      <text x="26" y="284" fill="#F0EFF8" font-family="Inter, Arial" font-size="17">"Madan ka document upload karna hai"</text>
    </g>
  </g>

  <path d="M440 222C488 240 510 274 545 304" stroke="#00D9A3" stroke-width="3" stroke-opacity="0.72"/>
  <path d="M440 334C488 334 510 334 545 334" stroke="#FFB800" stroke-width="3" stroke-opacity="0.72"/>
  <path d="M440 446C490 424 516 390 545 365" stroke="#6C63FF" stroke-width="3" stroke-opacity="0.72"/>
  <path d="M960 222C910 240 886 274 855 304" stroke="#4D9EFF" stroke-width="3" stroke-opacity="0.72"/>
  <path d="M960 334C910 334 884 334 855 334" stroke="#FF4D6D" stroke-width="3" stroke-opacity="0.72"/>
  <path d="M960 446C908 424 882 390 855 365" stroke="#00D9A3" stroke-width="3" stroke-opacity="0.72"/>

  <g transform="translate(280 562)">
    <rect width="840" height="48" rx="18" fill="#FFFFFF" fill-opacity="0.06" stroke="#FFFFFF" stroke-opacity="0.08"/>
    <text x="30" y="31" fill="#A09EC0" font-family="Inter, Arial" font-size="16">Parser output: intent + tenant/room match + amount/date/method + confidence -> confirmation card -> action</text>
  </g>
</svg>
